<?xml version="1.0" encoding="UTF-8"?>
<svg width="20px" height="28px" viewBox="0 0 20 28" version="1.1" xmlns="http://www.w3.org/2000/svg" xmlns:xlink="http://www.w3.org/1999/xlink">
    <title>Group 3</title>
    <defs>
        <path d="M18.6839352,0 C14.6556987,0.46397619 8.99045764,2.36421899 5.40283812,5.89514836 L5.40283812,5.89514836 C2.36953388,8.88057674 0.52384144,12.0145614 0.100293648,16.4141351 L0.100293648,16.4141351 C0.0991364138,16.4260539 0.098268488,16.4381634 0.0971112536,16.4500822 L0.0971112536,16.4500822 C0.084285239,16.5853848 0.0726164588,16.7218315 0.0624906577,16.8596132 L0.0624906577,16.8596132 C0.0587296459,16.9106258 0.0560294323,16.9626873 0.0525577291,17.0139859 L0.0525577291,17.0139859 C0.0460000675,17.113532 0.0394424059,17.2129827 0.0342348511,17.3137683 L0.0342348511,17.3137683 C0.0297023497,17.4029211 0.0265199551,17.4932182 0.0231446881,17.5833245 L0.0231446881,17.5833245 C0.0210230916,17.6400582 0.017840697,17.6959336 0.0161048454,17.753144 L0.0161048454,17.753144 C0.00568973581,17.9373614 0,18.1228184 0,18.3096103 L0,18.3096103 C0,18.3119941 0,18.3143779 0,18.316857 L0,18.316857 C0,18.31905 0,18.3212431 0,18.3234362 L0,18.3234362 C0,18.3247711 0,18.3262967 0,18.3276316 L0,18.3276316 C0,18.3302061 0,18.3327805 0,18.3354503 L0,18.3354503 C0,18.34079 0.000289308601,18.3461296 0.000482181001,18.3514693 L0.000482181001,18.3514693 C0.000482181001,18.35576 0.000289308601,18.3600508 0.000289308601,18.3644369 L0.000289308601,18.3644369 C0.000289308601,18.3896095 0.0010607982,18.4145914 0.0012536706,18.4397639 L0.0012536706,18.4397639 C0.000675053402,18.4595969 0,18.4792391 0,18.4996441 L0,18.4996441 L0.000289308601,18.4995488 C0,18.5035535 0,18.5075582 0,18.5116583 L0,18.5116583 L0.0021215964,18.5103234 C0.0811028444,23.7646201 4.41272765,28 9.74555309,28 L9.74555309,28 C15.1276574,28 19.4908169,23.6860512 19.4908169,18.3644369 L19.4908169,18.3644369 C19.4908169,14.3079349 16.9554127,10.8373625 13.3661538,9.4162566 L13.3661538,9.4162566 L13.3734829,9.39508876 C13.4027031,9.28924956 13.4335627,9.18407781 13.4655795,9.07947816 L13.4655795,9.07947816 C13.4645187,9.07900141 13.4635543,9.07862 13.4624936,9.0782386 L13.4624936,9.0782386 C14.5321639,5.57238646 17.2135724,2.80159236 19.9918029,1.15784276 L19.9918029,1.15784276 C19.9945996,1.1562218 19.9972998,1.15450549 20,1.15297988 L20,1.15297988 L19.5641084,0.773293649 C19.5654585,0.772816896 19.566905,0.772054091 19.568448,0.771577338 L19.568448,0.771577338 L19.1261916,0.385788669 L18.6839352,0 Z" id="path-1"></path>
        <linearGradient x1="0%" y1="50.000039%" x2="99.9998413%" y2="50.000039%" id="linearGradient-3">
            <stop stop-color="#171777" offset="0%"></stop>
            <stop stop-color="#4138D1" offset="100%"></stop>
        </linearGradient>
    </defs>
    <g id="Page-1" stroke="none" stroke-width="1" fill="none" fill-rule="evenodd">
        <g id="News-Blog" transform="translate(-103.000000, -24.000000)">
            <g id="Group-3" transform="translate(103.000000, 24.000000)">
                <mask id="mask-2" fill="white">
                    <use xlink:href="#path-1"></use>
                </mask>
                <g id="Clip-2"></g>
                <path d="M18.6839352,0 C14.6556987,0.46397619 8.99045764,2.36421899 5.40283812,5.89514836 L5.40283812,5.89514836 C2.36953388,8.88057674 0.52384144,12.0145614 0.100293648,16.4141351 L0.100293648,16.4141351 C0.0991364138,16.4260539 0.098268488,16.4381634 0.0971112536,16.4500822 L0.0971112536,16.4500822 C0.084285239,16.5853848 0.0726164588,16.7218315 0.0624906577,16.8596132 L0.0624906577,16.8596132 C0.0587296459,16.9106258 0.0560294323,16.9626873 0.0525577291,17.0139859 L0.0525577291,17.0139859 C0.0460000675,17.113532 0.0394424059,17.2129827 0.0342348511,17.3137683 L0.0342348511,17.3137683 C0.0297023497,17.4029211 0.0265199551,17.4932182 0.0231446881,17.5833245 L0.0231446881,17.5833245 C0.0210230916,17.6400582 0.017840697,17.6959336 0.0161048454,17.753144 L0.0161048454,17.753144 C0.00568973581,17.9373614 0,18.1228184 0,18.3096103 L0,18.3096103 C0,18.3119941 0,18.3143779 0,18.316857 L0,18.316857 C0,18.31905 0,18.3212431 0,18.3234362 L0,18.3234362 C0,18.3247711 0,18.3262967 0,18.3276316 L0,18.3276316 C0,18.3302061 0,18.3327805 0,18.3354503 L0,18.3354503 C0,18.34079 0.000289308601,18.3461296 0.000482181001,18.3514693 L0.000482181001,18.3514693 C0.000482181001,18.35576 0.000289308601,18.3600508 0.000289308601,18.3644369 L0.000289308601,18.3644369 C0.000289308601,18.3896095 0.0010607982,18.4145914 0.0012536706,18.4397639 L0.0012536706,18.4397639 C0.000675053402,18.4595969 0,18.4792391 0,18.4996441 L0,18.4996441 L0.000289308601,18.4995488 C0,18.5035535 0,18.5075582 0,18.5116583 L0,18.5116583 L0.0021215964,18.5103234 C0.0811028444,23.7646201 4.41272765,28 9.74555309,28 L9.74555309,28 C15.1276574,28 19.4908169,23.6860512 19.4908169,18.3644369 L19.4908169,18.3644369 C19.4908169,14.3079349 16.9554127,10.8373625 13.3661538,9.4162566 L13.3661538,9.4162566 L13.3734829,9.39508876 C13.4027031,9.28924956 13.4335627,9.18407781 13.4655795,9.07947816 L13.4655795,9.07947816 C13.4645187,9.07900141 13.4635543,9.07862 13.4624936,9.0782386 L13.4624936,9.0782386 C14.5321639,5.57238646 17.2135724,2.80159236 19.9918029,1.15784276 L19.9918029,1.15784276 C19.9945996,1.1562218 19.9972998,1.15450549 20,1.15297988 L20,1.15297988 L19.5641084,0.773293649 C19.5654585,0.772816896 19.566905,0.772054091 19.568448,0.771577338 L19.568448,0.771577338 L19.1261916,0.385788669 L18.6839352,0 Z" id="Fill-1" fill="url(#linearGradient-3)" mask="url(#mask-2)"></path>
            </g>
        </g>
    </g>
</svg>