<?xml version="1.0" encoding="UTF-8"?>
<svg width="99px" height="40px" viewBox="0 0 99 40" version="1.1" xmlns="http://www.w3.org/2000/svg" xmlns:xlink="http://www.w3.org/1999/xlink">
    <title>Group 37</title>
    <defs>
        <path d="M23.9255227,0 C18.7672548,0.599369567 11.5126397,3.0535122 6.91854316,7.6136298 L6.91854316,7.6136298 C3.03416799,11.4693316 0.670827033,15.5170458 0.128432535,21.199239 L0.128432535,21.199239 C0.12701451,21.2145919 0.12579906,21.2302478 0.124381035,21.2456007 L0.124381035,21.2456007 C0.107972462,21.4203411 0.092981914,21.5965966 0.0800171155,21.7745691 L0.0800171155,21.7745691 C0.0751553161,21.840425 0.071610254,21.907493 0.0673561795,21.973955 L0.0673561795,21.973955 C0.058949318,22.1024346 0.0505424565,22.2309142 0.0438574823,22.3611109 L0.0438574823,22.3611109 C0.037982808,22.4761568 0.034032596,22.5929197 0.0295759465,22.7092786 L0.0295759465,22.7092786 C0.0269424718,22.7826089 0.0228909723,22.8547272 0.0206626476,22.9284616 L0.0206626476,22.9284616 C0.00739398662,23.1665327 0,23.4060179 0,23.6473213 L0,23.6473213 C0,23.6503514 0,23.6534826 0,23.6566138 L0,23.6566138 C0,23.659341 0,23.6621691 0,23.6649973 L0,23.6649973 C0,23.6669164 0,23.6686335 0,23.6704516 L0,23.6704516 C0,23.6738858 0,23.677219 0,23.6805522 L0,23.6805522 C0,23.6875216 0.000303862464,23.69439 0.00050643744,23.7012585 L0.00050643744,23.7012585 C0.00050643744,23.7069148 0.000303862464,23.7123691 0.000303862464,23.7180255 L0.000303862464,23.7180255 C0.000303862464,23.7505494 0.00131673734,23.7828713 0.00151931232,23.8152942 L0.00151931232,23.8152942 C0.000810299904,23.8409497 0,23.8664033 0,23.8926648 L0,23.8926648 L0.000303862464,23.8924628 C0.000303862464,23.8977151 0,23.9028664 0,23.9082197 L0,23.9082197 L0.00273476218,23.9065026 C0.103819675,30.6923883 5.65062638,36.1625699 12.4795301,36.1625699 L12.4795301,36.1625699 C19.3716372,36.1625699 24.9587564,30.5908773 24.9587564,23.7180255 L24.9587564,23.7180255 C24.9587564,18.4789456 21.7120872,13.9967036 17.1158636,12.1613237 L17.1158636,12.1613237 L17.1253846,12.133951 C17.1626584,11.9970879 17.2022618,11.8614369 17.2432832,11.7262909 L17.2432832,11.7262909 C17.2419665,11.7257858 17.2406498,11.7252808 17.239333,11.7246748 L17.239333,11.7246748 C18.6090437,7.19687907 22.0425883,3.61833772 25.6004126,1.49539374 L25.6004126,1.49539374 C25.6038564,1.49327261 25.6073001,1.49115149 25.6107439,1.48903036 L25.6107439,1.48903036 L25.0525486,0.998747267 C25.054473,0.998040225 25.0562962,0.997232177 25.0581194,0.996525135 L25.0581194,0.996525135 L24.4919223,0.498262567 L23.9255227,0 Z" id="path-1"></path>
        <linearGradient x1="0%" y1="50.0000117%" x2="100.000117%" y2="50.0000117%" id="linearGradient-3">
            <stop stop-color="#4138D1" offset="0%"></stop>
            <stop stop-color="#171777" offset="100%"></stop>
        </linearGradient>
        <polygon id="path-4" points="0 0 7.82484334 0 7.82484334 10.5468439 0 10.5468439"></polygon>
        <polygon id="path-6" points="0 0 6.79975319 0 6.79975319 9.7217259 0 9.7217259"></polygon>
    </defs>
    <g id="Page-1" stroke="none" stroke-width="1" fill="none" fill-rule="evenodd">
        <g id="News-Blog" transform="translate(-100.000000, -37.000000)">
            <g id="Group-37" transform="translate(100.500000, 37.500000)">
                <g id="Group-3">
                    <mask id="mask-2" fill="white">
                        <use xlink:href="#path-1"></use>
                    </mask>
                    <g id="Clip-2"></g>
                    <path d="M23.9255227,0 C18.7672548,0.599369567 11.5126397,3.0535122 6.91854316,7.6136298 L6.91854316,7.6136298 C3.03416799,11.4693316 0.670827033,15.5170458 0.128432535,21.199239 L0.128432535,21.199239 C0.12701451,21.2145919 0.12579906,21.2302478 0.124381035,21.2456007 L0.124381035,21.2456007 C0.107972462,21.4203411 0.092981914,21.5965966 0.0800171155,21.7745691 L0.0800171155,21.7745691 C0.0751553161,21.840425 0.071610254,21.907493 0.0673561795,21.973955 L0.0673561795,21.973955 C0.058949318,22.1024346 0.0505424565,22.2309142 0.0438574823,22.3611109 L0.0438574823,22.3611109 C0.037982808,22.4761568 0.034032596,22.5929197 0.0295759465,22.7092786 L0.0295759465,22.7092786 C0.0269424718,22.7826089 0.0228909723,22.8547272 0.0206626476,22.9284616 L0.0206626476,22.9284616 C0.00739398662,23.1665327 0,23.4060179 0,23.6473213 L0,23.6473213 C0,23.6503514 0,23.6534826 0,23.6566138 L0,23.6566138 C0,23.659341 0,23.6621691 0,23.6649973 L0,23.6649973 C0,23.6669164 0,23.6686335 0,23.6704516 L0,23.6704516 C0,23.6738858 0,23.677219 0,23.6805522 L0,23.6805522 C0,23.6875216 0.000303862464,23.69439 0.00050643744,23.7012585 L0.00050643744,23.7012585 C0.00050643744,23.7069148 0.000303862464,23.7123691 0.000303862464,23.7180255 L0.000303862464,23.7180255 C0.000303862464,23.7505494 0.00131673734,23.7828713 0.00151931232,23.8152942 L0.00151931232,23.8152942 C0.000810299904,23.8409497 0,23.8664033 0,23.8926648 L0,23.8926648 L0.000303862464,23.8924628 C0.000303862464,23.8977151 0,23.9028664 0,23.9082197 L0,23.9082197 L0.00273476218,23.9065026 C0.103819675,30.6923883 5.65062638,36.1625699 12.4795301,36.1625699 L12.4795301,36.1625699 C19.3716372,36.1625699 24.9587564,30.5908773 24.9587564,23.7180255 L24.9587564,23.7180255 C24.9587564,18.4789456 21.7120872,13.9967036 17.1158636,12.1613237 L17.1158636,12.1613237 L17.1253846,12.133951 C17.1626584,11.9970879 17.2022618,11.8614369 17.2432832,11.7262909 L17.2432832,11.7262909 C17.2419665,11.7257858 17.2406498,11.7252808 17.239333,11.7246748 L17.239333,11.7246748 C18.6090437,7.19687907 22.0425883,3.61833772 25.6004126,1.49539374 L25.6004126,1.49539374 C25.6038564,1.49327261 25.6073001,1.49115149 25.6107439,1.48903036 L25.6107439,1.48903036 L25.0525486,0.998747267 C25.054473,0.998040225 25.0562962,0.997232177 25.0581194,0.996525135 L25.0581194,0.996525135 L24.4919223,0.498262567 L23.9255227,0 Z" id="Fill-1" fill="url(#linearGradient-3)" mask="url(#mask-2)"></path>
                </g>
                <g id="Group-36" transform="translate(28.592850, 2.097602)">
                    <path d="M10.3225827,22.8711104 L6.92256427,31.8577147 L6.79980383,31.8577147 L2.15050556,20.4612084 C1.41323393,18.7455206 1.24924949,18.3165481 7.09012424e-05,18.2961449 L7.09012424e-05,17.9693905 C0.737241239,17.9897937 1.8434019,18.0101969 3.03109898,18.0101969 C4.21909993,18.0101969 5.44812231,17.9897937 6.47203752,17.9693905 L6.47203752,18.2961449 C5.12035599,18.3165481 4.79269097,18.5820929 4.79269097,19.1334846 C4.79269097,19.4194326 4.89478876,19.8075986 5.09979463,20.2976797 L7.90566063,27.650411 L9.97425499,21.9521579 L9.46224674,20.5428212 C8.78625405,18.7047142 8.54073318,18.3165481 7.51641281,18.2961449 L7.51641281,17.9693905 C8.2539883,17.9897937 9.2982623,18.0101969 10.4246805,18.0101969 C11.5718625,18.0101969 12.7392008,17.9897937 13.7632173,17.9693905 L13.7632173,18.2961449 C12.3706157,18.3369513 12.0020305,18.5820929 12.0020305,19.1948962 C12.0020305,19.460239 12.1041283,19.8280018 12.2681127,20.2976797 L14.7669764,27.6708142 L17.1629319,20.7879628 C17.4087566,20.0934456 17.5521797,19.5624571 17.5521797,19.1948962 C17.5521797,18.50048 17.1835945,18.3165481 15.6066496,18.2961449 L15.6066496,17.9693905 C16.6509236,17.9897937 17.4496768,18.0101969 18.1665896,18.0101969 C18.9038612,18.0101969 19.6823569,17.9897937 20.3989658,17.9693905 L20.3989658,18.2961449 C19.1087658,18.2961449 18.8426836,18.7047142 18.1256695,20.4612084 L13.7632173,31.8577147 L13.6197943,31.8577147 L10.3225827,22.8711104 Z" id="Fill-4" fill="#0C0C3C"></path>
                    <path d="M0.0901458643,15.0892955 C1.37548409,15.0443478 1.78134305,14.8420328 1.98432318,14.2346838 C2.18720202,13.6500611 2.18720202,11.82862 2.18720202,8.29795551 L2.18720202,7.48849347 C2.18720202,3.95782896 2.18720202,2.13638788 1.98432318,1.55176518 C1.78134305,0.944618155 1.35279569,0.742101137 0,0.69715347 L0,0.359793451 C0.901863793,0.382216781 2.02939611,0.404741118 3.02160834,0.404741118 C4.41978083,0.404741118 5.61507447,0.33737012 6.83265137,0.33737012 C10.5759331,0.314845783 13.1692979,1.79902786 13.1692979,4.49750399 C13.1692979,7.51091681 10.2150457,8.83763053 7.10339282,8.83763053 C6.62967124,8.83763053 6.33664654,8.8152072 5.86302624,8.74783621 L5.86302624,8.54542019 C8.81727841,8.54542019 9.92202104,6.72397911 9.92202104,4.565077 C9.92202104,2.29375521 8.50156531,0.989565822 6.404104,0.989565822 C5.90809917,0.989565822 5.23160004,1.07936015 5.23160004,1.07936015 C5.18652711,2.72101057 5.18652711,4.45265733 5.18652711,7.55586447 L5.18652711,8.29795551 C5.18652711,11.3337917 5.20921551,13.6051134 5.34433302,14.0999418 C5.54731314,14.7744598 5.95317211,15.0219245 7.84734942,15.0892955 L7.84734942,15.4266555 C6.49455373,15.4041312 5.07369285,15.3817079 3.74328169,15.3817079 C2.41287054,15.3817079 1.17260525,15.4041312 0.0901458643,15.4266555 L0.0901458643,15.0892955 Z" id="Fill-6" fill="#0C0C3C"></path>
                    <path d="M16.2129059,3.19330449 C15.3784996,3.19330449 14.634543,2.51858446 14.634543,1.59670275 C14.634543,0.652195702 15.3784996,0 16.2129059,0 C17.0696967,0 17.7912688,0.652195702 17.7912688,1.59670275 C17.7912688,2.51858446 17.0696967,3.19330449 16.2129059,3.19330449 L16.2129059,3.19330449 Z M18.4227963,15.4266454 C17.9267915,15.4042221 17.0473122,15.3816978 16.167833,15.3816978 C15.3110421,15.3816978 14.4088744,15.4042221 13.9128696,15.4266454 L13.9128696,15.1118098 L14.138133,15.0892854 C14.7923489,14.9993901 14.7923489,14.8644461 14.7923489,13.110376 L14.7923489,8.11805373 C14.7923489,7.82584339 14.7696605,7.55585437 14.5217087,7.24101869 L13.9803271,6.43155666 L13.9803271,6.31903598 C15.0626852,5.98187797 16.5736919,5.39705327 17.5209325,4.90242692 L17.6337668,4.94737458 C17.58839,5.4194766 17.543317,6.45397999 17.543317,7.64595172 L17.543317,13.110376 C17.543317,14.8644461 17.543317,14.9993901 18.1297716,15.0668621 L18.4227963,15.1118098 L18.4227963,15.4266454 Z" id="Fill-8" fill="#0C0C3C"></path>
                    <path d="M27.1495642,10.4567768 C27.1495642,7.64588101 26.2473965,5.46465658 24.6913169,5.46465658 C23.1580269,5.46465658 22.2561631,7.308622 22.2561631,10.1645665 C22.2561631,12.9529379 23.1580269,15.1566867 24.6913169,15.1566867 C26.2473965,15.1566867 27.1495642,13.3127213 27.1495642,10.4567768 M30.2389339,10.2543608 C30.2389339,13.4476653 27.5103502,15.6515151 24.6913169,15.6515151 C21.8953771,15.6515151 19.1440037,13.5151373 19.1440037,10.3668815 C19.1440037,7.17357699 21.8953771,4.94740488 24.6913169,4.94740488 C27.5103502,4.94740488 30.2389339,7.10620599 30.2389339,10.2543608" id="Fill-10" fill="#0C0C3C"></path>
                    <path d="M41.5137,15.4266353 C41.0173913,15.404212 40.1606004,15.3816877 39.2811211,15.3816877 C38.4016419,15.3816877 37.5221626,15.404212 37.0261578,15.4266353 L37.0261578,15.1117996 L37.2514212,15.0892753 C37.8829487,14.999481 37.8829487,14.864436 37.8829487,13.1103659 L37.8829487,9.75959304 C37.8829487,7.89320429 37.3869438,6.61143823 35.9436984,6.61143823 C35.6279853,6.61143823 35.154365,6.67880923 34.6807447,6.88122524 L34.6807447,13.1103659 C34.6807447,14.864436 34.6807447,14.999481 35.2671993,15.066852 L35.560224,15.1117996 L35.560224,15.4266353 C35.0642192,15.404212 34.1847399,15.3816877 33.3052606,15.3816877 C32.4484698,15.3816877 31.5463021,15.404212 31.0502973,15.4266353 L31.0502973,15.1117996 L31.2755607,15.0892753 C31.9297766,14.999481 31.9297766,14.864436 31.9297766,13.1103659 L31.9297766,8.11804363 C31.9297766,7.82583329 31.9070882,7.55584427 31.6591364,7.24100859 L31.1177548,6.43154655 L31.1177548,6.31902588 C32.2001129,5.98186787 33.7111196,5.39704317 34.6583602,4.90241681 L34.7707893,4.94736448 C34.7258177,5.3520955 34.7034331,6.11671087 34.6807447,6.61143823 C35.6279853,5.86934719 37.0712307,4.94736448 38.1986618,4.94736448 C39.6869801,4.94736448 40.6566052,6.20670721 40.6566052,7.73573595 L40.6566052,13.1103659 C40.6566052,14.864436 40.6566052,14.999481 41.2202701,15.066852 L41.5137,15.1117996 L41.5137,15.4266353 Z" id="Fill-12" fill="#0C0C3C"></path>
                    <path d="M45.0309282,8.25301794 L48.0529417,8.14069928 C48.5038736,8.11807393 48.6389911,7.87071026 48.6389911,7.55587457 C48.6389911,6.31905618 48.1880592,5.57696514 47.2408187,5.57696514 C46.1583593,5.57696514 45.3016697,6.72398921 45.0309282,8.25301794 M47.0606282,15.651505 C44.3543278,15.651505 42.2121987,13.6950189 42.2121987,10.7042314 C42.2121987,7.28608756 44.8507378,4.94739478 47.5342485,4.94739478 C49.4733975,4.94739478 51.0521655,5.98189817 51.0521655,7.78091593 C51.0521655,8.27544127 50.8038086,8.65774896 50.1273095,8.65774896 L44.9635721,8.65774896 C44.9407824,8.83764063 44.9407824,9.04005665 44.9407824,9.24257366 C44.9407824,12.0758928 46.5192466,13.7625919 48.7968983,13.7625919 C49.7441389,13.7625919 50.5107839,13.4252319 51.2096676,12.6380922 L51.3225018,12.7056652 C50.6686911,14.4371099 48.8873481,15.651505 47.0606282,15.651505" id="Fill-14" fill="#0C0C3C"></path>
                    <path d="M54.6818736,8.25301794 L57.7038871,8.14069928 C58.154819,8.11807393 58.2899365,7.87071026 58.2899365,7.55587457 C58.2899365,6.31905618 57.8390046,5.57696514 56.891764,5.57696514 C55.8093046,5.57696514 54.952615,6.72398921 54.6818736,8.25301794 M56.7115735,15.651505 C54.0052732,15.651505 51.8631441,13.6950189 51.8631441,10.7042314 C51.8631441,7.28608756 54.5016831,4.94739478 57.1851938,4.94739478 C59.1243428,4.94739478 60.702807,5.98189817 60.702807,7.78091593 C60.702807,8.27544127 60.4547539,8.65774896 59.7782548,8.65774896 L54.6145174,8.65774896 C54.5917277,8.83764063 54.5917277,9.04005665 54.5917277,9.24257366 C54.5917277,12.0758928 56.1701919,13.7625919 58.4478437,13.7625919 C59.3950842,13.7625919 60.1617292,13.4252319 60.8606129,12.6380922 L60.9734472,12.7056652 C60.3196364,14.4371099 58.5378882,15.651505 56.7115735,15.651505" id="Fill-16" fill="#0C0C3C"></path>
                    <g id="Group-20" transform="translate(61.582307, 4.879791)">
                        <mask id="mask-5" fill="white">
                            <use xlink:href="#path-4"></use>
                        </mask>
                        <g id="Clip-19"></g>
                        <path d="M5.07359156,10.5468439 C4.44206407,10.5244205 3.47254024,10.5018962 2.50291512,10.5018962 C1.53328999,10.5018962 0.563664871,10.5244205 0,10.5468439 L0,10.2320082 L0.225263373,10.2094838 C0.879479258,10.1196895 0.879479258,9.9846445 0.879479258,8.23057441 L0.879479258,3.23825216 C0.879479258,2.94604182 0.856689573,2.6760528 0.608737803,2.36121712 L0.0673561795,1.55175508 L0.0673561795,1.43923441 C1.14981556,1.1020764 2.66072102,0.494828364 3.6080629,0 L3.72049201,0.0451496792 C3.67541908,0.517251694 3.63034614,1.57417841 3.63034614,2.31626945 L3.63034614,2.5413108 C4.5098254,1.1694474 5.34433302,0.0900973465 6.40400272,0.0900973465 C7.28348197,0.0900973465 7.8248636,0.697143369 7.8248636,1.59670275 C7.8248636,2.49616112 7.10329153,3.01341282 6.47176405,3.01341282 C5.61497318,3.01341282 5.43437759,2.22637412 4.71280553,2.22637412 C4.32963496,2.22637412 3.99113218,2.47373779 3.63034614,2.83352114 L3.63034614,8.20815108 C3.63034614,9.96222117 3.65303454,10.0971652 4.2168007,10.1421128 L5.07359156,10.2094838 L5.07359156,10.5468439 Z" id="Fill-18" fill="#0C0C3C" mask="url(#mask-5)"></path>
                    </g>
                    <path d="M23.4706507,31.6534806 C22.8974648,31.6330773 22.0164662,31.6126741 21.1358728,31.6126741 C20.2552794,31.6126741 19.3745847,31.6330773 18.8625764,31.6534806 L18.8625764,31.3675326 L19.0672785,31.3471294 C19.6614309,31.2655165 19.6614309,31.1428953 19.6614309,29.5498287 L19.6614309,25.0155686 C19.6614309,24.7502259 19.6407682,24.5050844 19.4155048,24.2190354 L18.9238554,23.4839138 L18.9238554,23.3816957 C19.9069517,23.0754455 21.2792959,22.5239528 22.1395305,22.0745771 L22.2420335,22.1154846 C22.2008095,22.544356 22.1598893,23.504317 22.1598893,24.178229 L22.1598893,24.3825641 C22.9586425,23.1366552 23.7164754,22.156291 24.6790104,22.156291 C25.4777636,22.156291 25.969413,22.7076827 25.969413,23.5247202 C25.969413,24.3416567 25.314083,24.8114355 24.7404919,24.8114355 C23.9624015,24.8114355 23.7983157,24.0966161 23.1429857,24.0966161 C22.7949619,24.0966161 22.4875544,24.3212534 22.1598893,24.6480078 L22.1598893,29.5294255 C22.1598893,31.122492 22.1804507,31.2451133 22.6924589,31.2859197 L23.4706507,31.3471294 L23.4706507,31.6534806 Z" id="Fill-21" fill="#0C0C3C"></path>
                    <path d="M28.4675879,20.5428111 C27.7097549,20.5428111 27.0340661,19.9300078 27.0340661,19.0926681 C27.0340661,18.2349252 27.7097549,17.642525 28.4675879,17.642525 C29.2457797,17.642525 29.9011097,18.2349252 29.9011097,19.0926681 C29.9011097,19.9300078 29.2457797,20.5428111 28.4675879,20.5428111 L28.4675879,20.5428111 Z M30.4747008,31.6534704 C30.024174,31.6330672 29.2254209,31.612664 28.4266678,31.612664 C27.648476,31.612664 26.8291615,31.6330672 26.3786347,31.6534704 L26.3786347,31.3675225 L26.5832355,31.3471193 C27.1773879,31.2655064 27.1773879,31.1428852 27.1773879,29.5498186 L27.1773879,25.0156596 C27.1773879,24.7502158 27.1568265,24.5050743 26.9315631,24.2190253 L26.4399137,23.4839037 L26.4399137,23.3816856 C27.42301,23.0754354 28.7952529,22.5443459 29.6555888,22.0950712 L29.7577879,22.1358777 C29.7168678,22.5647491 29.6759476,23.5043069 29.6759476,24.5867881 L29.6759476,29.5498186 C29.6759476,31.1428852 29.6759476,31.2655064 30.2085172,31.3267161 L30.4747008,31.3675225 L30.4747008,31.6534704 Z" id="Fill-23" fill="#0C0C3C"></path>
                    <path d="M31.826048,29.7949501 C31.826048,27.5278705 31.826048,25.0973633 31.8467107,24.0965959 L30.9454546,23.2182478 L30.9454546,23.136635 C31.9900325,22.462723 33.3826342,21.4209471 34.3451692,20.4611882 L34.4682335,20.5223978 C34.4273133,20.8695554 34.3451692,21.9111292 34.3248104,22.462723 L37.5608443,22.3809081 C37.5608443,22.6873603 37.1922592,23.3612723 36.9873546,23.5655064 L34.3248104,23.5042968 L34.3248104,29.1617435 C34.3248104,29.9173693 35.0414193,30.1421077 35.9224179,30.1421077 C36.5368278,30.1421077 37.0691949,30.0195874 37.6426846,29.6519256 L37.7042674,29.7335384 C37.0488361,30.8773303 35.8402738,31.8576945 34.3860893,31.8576945 C32.8909847,31.8576945 31.826048,31.040758 31.826048,29.7949501" id="Fill-25" fill="#0C0C3C"></path>
                    <path d="M40.1205615,20.5428111 C39.3627285,20.5428111 38.6870396,19.9300078 38.6870396,19.0926681 C38.6870396,18.2349252 39.3627285,17.642525 40.1205615,17.642525 C40.8987532,17.642525 41.5540833,18.2349252 41.5540833,19.0926681 C41.5540833,19.9300078 40.8987532,20.5428111 40.1205615,20.5428111 L40.1205615,20.5428111 Z M42.1276743,31.6534704 C41.6771476,31.6330672 40.8783944,31.612664 40.0796413,31.612664 C39.3014495,31.612664 38.4821351,31.6330672 38.0316083,31.6534704 L38.0316083,31.3675225 L38.236209,31.3471193 C38.8303614,31.2655064 38.8303614,31.1428852 38.8303614,29.5498186 L38.8303614,25.0156596 C38.8303614,24.7502158 38.8098001,24.5050743 38.5845367,24.2190253 L38.0928872,23.4839037 L38.0928872,23.3816856 C39.0759836,23.0754354 40.4482265,22.5443459 41.3085624,22.0950712 L41.4107615,22.1358777 C41.3698413,22.5647491 41.3289212,23.5043069 41.3289212,24.5867881 L41.3289212,29.5498186 C41.3289212,31.1428852 41.3289212,31.2655064 41.8614908,31.3267161 L42.1276743,31.3675225 L42.1276743,31.6534704 Z" id="Fill-27" fill="#0C0C3C"></path>
                    <path d="M52.3474097,31.6534806 C51.8965791,31.6330773 51.1184886,31.6126741 50.3197355,31.6126741 C49.520881,31.6126741 48.7221279,31.6330773 48.2717024,31.6534806 L48.2717024,31.3675326 L48.4763032,31.3471294 C49.0497929,31.2655165 49.0497929,31.1428953 49.0497929,29.5498287 L49.0497929,26.5065181 C49.0497929,24.8114355 48.5993675,23.6472405 47.2886061,23.6472405 C47.0018612,23.6472405 46.5716932,23.7084501 46.1415253,23.892281 L46.1415253,29.5498287 C46.1415253,31.1428953 46.1415253,31.2655165 46.6740949,31.3267262 L46.9402784,31.3675326 L46.9402784,31.6534806 C46.489853,31.6330773 45.6909985,31.6126741 44.8922454,31.6126741 C44.1141549,31.6126741 43.2947391,31.6330773 42.8442124,31.6534806 L42.8442124,31.3675326 L43.0488131,31.3471294 C43.6430668,31.2655165 43.6430668,31.1428953 43.6430668,29.5498287 L43.6430668,25.0155686 C43.6430668,24.7502259 43.6224042,24.5050844 43.3971408,24.2190354 L42.9054913,23.4839138 L42.9054913,23.3816957 C43.8885877,23.0754455 45.2609319,22.544356 46.1211665,22.0950813 L46.2236694,22.1358878 C46.1824454,22.5035496 46.1620866,23.1978648 46.1415253,23.6472405 C47.0018612,22.9733285 48.3126226,22.1358878 49.3366391,22.1358878 C50.6883206,22.1358878 51.568914,23.2796796 51.568914,24.668411 L51.568914,29.5498287 C51.568914,31.1428953 51.568914,31.2655165 52.0809223,31.3267262 L52.3474097,31.3675326 L52.3474097,31.6534806 Z" id="Fill-29" fill="#0C0C3C"></path>
                    <path d="M58.4295714,25.4445815 C58.4295714,23.9944385 57.9787408,22.5646986 56.9548256,22.5646986 C56.1968913,22.5646986 55.684883,23.6472809 55.684883,25.3629687 C55.684883,26.7925065 56.1766338,28.2222463 57.1597302,28.2222463 C57.9378206,28.2222463 58.4295714,27.1396641 58.4295714,25.4445815 L58.4295714,25.4445815 Z M54.9477127,32.3682394 C54.7837283,32.6337841 54.6815292,32.9402363 54.6815292,33.3486035 C54.6815292,35.0438881 56.0535695,36.1262684 57.7944988,36.1262684 C59.6379311,36.1262684 60.641285,35.1665094 60.641285,33.8797941 C60.641285,32.7768086 59.7403328,32.3478362 58.593252,32.3478362 L54.9477127,32.3682394 Z M56.4837375,36.9023984 C54.3741217,36.9023984 52.7153365,36.0038491 52.7153365,34.5128996 C52.7153365,33.4100152 53.7597118,32.6541873 54.8249523,32.3274329 C54.0671193,32.1232998 53.2886237,31.5308997 53.2886237,30.5915439 C53.2886237,29.7131958 54.3332015,28.8554529 55.1935374,28.2426495 C53.985279,27.6708546 53.2273447,26.547567 53.2273447,25.4853879 C53.2273447,23.4430467 55.0091942,22.1359282 57.0163071,22.1359282 C57.7944988,22.1359282 58.490749,22.3401623 59.0850027,22.6873199 C60.0679978,22.5238922 61.8499486,22.2379442 62.0545493,22.2379442 C62.3210367,22.2379442 62.402877,22.4218761 62.402877,22.6669167 C62.402877,22.9936711 62.1776136,23.4838532 61.9520464,23.7084905 C61.4809583,23.5860712 60.641285,23.4838532 60.0065163,23.4430467 C60.5185246,24.0148417 60.8255269,24.7297621 60.8255269,25.4037751 C60.8255269,27.4257131 59.0027573,28.6512188 57.0163071,28.6512188 C56.4224585,28.6512188 55.8692263,28.5285975 55.3778807,28.3244644 C55.1526173,28.6102104 55.0091942,28.8350497 55.0091942,29.1414009 C55.0091942,29.6111798 55.3369605,29.8969257 55.8692263,29.8969257 L59.6581886,29.8765225 C61.1738546,29.8765225 62.402877,30.9182983 62.402877,32.3070297 C62.402877,34.9621743 59.6994126,36.9023984 56.4837375,36.9023984 L56.4837375,36.9023984 Z" id="Fill-31" fill="#0C0C3C"></path>
                    <g id="Group-35" transform="translate(62.607397, 22.135928)">
                        <mask id="mask-7" fill="white">
                            <use xlink:href="#path-6"></use>
                        </mask>
                        <g id="Clip-34"></g>
                        <path d="M0.143423083,8.94559584 L0,6.63770989 L0.143423083,6.59690347 C0.655431335,8.43501054 1.82287092,9.14993097 2.88770628,9.14993097 C3.97330558,9.14993097 4.62873691,8.55763182 4.62873691,7.61807406 C4.62873691,5.59613608 0.368686456,6.10672138 0.368686456,3.00230216 C0.368686456,1.30711857 1.88404856,0 3.87080264,0 C4.853899,0 5.65265213,0.306351179 6.24650067,0.694416207 L6.36966626,2.53252328 L6.24650067,2.55292649 C5.81633271,1.30711857 5.01788344,0.571794931 3.85024128,0.571794931 C2.99020922,0.571794931 2.35513667,1.10278344 2.35513667,1.91992193 C2.35513667,3.79883543 6.79983422,3.49248425 6.79983422,6.53569383 C6.79983422,8.41460733 5.03824223,9.7217259 3.03112937,9.7217259 C2.00711286,9.7217259 0.757934273,9.39497151 0.143423083,8.94559584" id="Fill-33" fill="#0C0C3C" mask="url(#mask-7)"></path>
                    </g>
                </g>
            </g>
        </g>
    </g>
</svg>